<?xml version="1.0" encoding="UTF-8" standalone="no"?>
<!-- Created with Inkscape (http://www.inkscape.org/) -->

<svg
   xmlns:dc="http://purl.org/dc/elements/1.1/"
   xmlns:cc="http://creativecommons.org/ns#"
   xmlns:rdf="http://www.w3.org/1999/02/22-rdf-syntax-ns#"
   xmlns:svg="http://www.w3.org/2000/svg"
   xmlns="http://www.w3.org/2000/svg"
   xmlns:sodipodi="http://sodipodi.sourceforge.net/DTD/sodipodi-0.dtd"
   xmlns:inkscape="http://www.inkscape.org/namespaces/inkscape"
   id="svg2876"
   version="1.1"
   inkscape:version="0.48.4 r9939"
   width="429.94806"
   height="292.53802"
   sodipodi:docname="logo.svg">
  <metadata
     id="metadata2882">
    <rdf:RDF>
      <cc:Work
         rdf:about="">
        <dc:format>image/svg+xml</dc:format>
        <dc:type
           rdf:resource="http://purl.org/dc/dcmitype/StillImage" />
        <dc:title />
      </cc:Work>
    </rdf:RDF>
  </metadata>
  <defs
     id="defs2880">
    <inkscape:perspective
       sodipodi:type="inkscape:persp3d"
       inkscape:vp_x="0 : 0.5 : 1"
       inkscape:vp_y="0 : 1000 : 0"
       inkscape:vp_z="1 : 0.5 : 1"
       inkscape:persp3d-origin="0.5 : 0.33333333 : 1"
       id="perspective2884" />
  </defs>
  <sodipodi:namedview
     pagecolor="#ffffff"
     bordercolor="#666666"
     borderopacity="1"
     objecttolerance="10"
     gridtolerance="10"
     guidetolerance="10"
     inkscape:pageopacity="0"
     inkscape:pageshadow="2"
     inkscape:window-width="1600"
     inkscape:window-height="900"
     id="namedview2878"
     showgrid="false"
     inkscape:snap-to-guides="true"
     inkscape:snap-grids="true"
     inkscape:snap-bbox="true"
     inkscape:zoom="0.81830417"
     inkscape:cx="199.97322"
     inkscape:cy="15.124495"
     inkscape:window-x="0"
     inkscape:window-y="0"
     inkscape:window-maximized="0"
     inkscape:current-layer="svg2876"
     fit-margin-top="10"
     fit-margin-left="3"
     fit-margin-right="3"
     fit-margin-bottom="10" />
  <path
     style="fill:#e4002b;fill-opacity:1"
     d="M 214.96875 10 C 173.48872 10 134.11298 20.952096 96.8125 42.875 C 59.512 64.79791 29.79938 93.819899 7.71875 129.9375 C 4.56437 135.45765 3 140.91881 3 146.28125 C 3 151.64369 4.56437 157.07359 7.71875 162.59375 C 29.79938 198.71135 59.512 227.73334 96.8125 249.65625 C 134.11298 271.57916 173.48872 282.53125 214.96875 282.53125 C 256.44879 282.53125 295.85576 271.6253 333.15625 249.78125 C 370.45674 227.9372 400.13812 198.86907 422.21875 162.59375 C 425.37312 157.07359 426.9375 151.64369 426.9375 146.28125 C 426.9375 140.91881 425.37312 135.45765 422.21875 129.9375 C 400.13812 93.819899 370.45674 64.79791 333.15625 42.875 C 295.85576 20.952096 256.44879 10 214.96875 10 z M 146.65625 55.46875 L 151.21875 55.46875 L 155.8125 55.46875 L 155.90625 69.40625 L 156.03125 83.34375 L 160.5 83.34375 L 165 83.34375 L 165.09375 69.40625 L 165.1875 55.46875 L 169.6875 55.46875 L 174.15625 55.46875 L 174.15625 78.6875 L 174.15625 101.90625 L 169.9375 102 C 167.33168 102.0622 165.63125 102.17938 165.5 102.3125 C 165.35876 102.45577 165.30799 103.97557 165.34375 106.84375 L 165.40625 111.1875 L 174.15625 111.25 C 180.12108 111.2858 182.98101 111.20788 183.125 111.0625 C 183.25455 110.9317 183.37643 109.1512 183.4375 106.46875 L 183.53125 102.09375 L 187.78125 102 C 190.87184 101.9262 192.06068 101.81658 192.25 101.625 C 192.43933 101.43342 192.55212 100.22112 192.625 97.09375 L 192.71875 92.8125 L 197 92.75 C 199.74169 92.71498 201.3613 92.642724 201.53125 92.5 C 201.90325 92.187593 201.9023 83.930484 201.53125 83.6875 C 201.39411 83.59769 199.3587 83.493006 197 83.4375 L 192.71875 83.34375 L 192.65625 74.25 C 192.62765 69.261148 192.6955 65.118011 192.78125 65.03125 C 192.86695 64.94449 197.01065 64.85356 202 64.84375 L 211.0625 64.84375 L 211.15625 78.625 L 211.28125 92.40625 L 220.34375 92.40625 L 229.40625 92.40625 L 229.40625 88.0625 L 229.40625 83.71875 L 224.84375 83.625 L 220.25 83.53125 L 220.25 74.15625 L 220.25 64.75 L 229.53125 64.75 L 238.78125 64.75 L 238.84375 83.09375 C 238.87975 96.079978 238.96959 101.52925 239.125 101.71875 C 239.29202 101.92239 240.35474 101.98986 243.5625 102.03125 L 247.78125 102.09375 L 247.875 106.46875 C 247.9361 109.15089 248.05797 110.93173 248.1875 111.0625 C 248.33151 111.20788 251.21562 111.2858 257.25 111.25 L 266.125 111.1875 L 266.1875 106.84375 C 266.2233 103.97537 266.17253 102.45578 266.03125 102.3125 C 265.89952 102.1789 264.14563 102.06241 261.46875 102 L 257.15625 101.90625 L 257.03125 92.96875 C 256.96735 87.255036 256.88151 83.976719 256.75 83.84375 C 256.62561 83.717981 254.84427 83.626828 252.25 83.59375 L 247.96875 83.53125 L 247.96875 74.15625 L 247.96875 64.75 L 252.34375 64.65625 L 256.75 64.5625 L 256.84375 60.03125 L 256.9375 55.46875 L 261.625 55.46875 L 266.3125 55.46875 L 266.40625 69.40625 L 266.53125 83.34375 L 270.90625 83.34375 L 275.3125 83.34375 L 275.40625 69.40625 L 275.5 55.46875 L 280.09375 55.46875 L 284.65625 55.46875 L 284.65625 78.78125 L 284.65625 102.09375 L 280.1875 102.1875 L 275.6875 102.3125 L 275.59375 111.5 L 275.5 120.65625 L 261.84375 120.78125 L 248.15625 120.875 L 248.15625 125.3125 L 248.15625 129.75 L 257.25 129.84375 L 266.3125 129.96875 L 266.40625 139.25 L 266.53125 148.53125 L 271 148.625 L 275.5 148.71875 L 275.5 162.65625 L 275.5 176.59375 L 270.90625 176.59375 L 266.3125 176.59375 L 266.28125 162.875 C 266.24705 153.71204 266.13865 149.07813 266 148.9375 C 265.87523 148.81094 264.0713 148.68567 261.46875 148.625 L 257.15625 148.53125 L 257.09375 144.3125 C 257.05925 141.6129 256.95297 139.98377 256.8125 139.8125 C 256.50609 139.43891 230.11856 139.40829 229.75 139.78125 C 229.56739 139.96604 229.53125 144.30593 229.53125 158.125 C 229.53125 168.08737 229.43394 176.28738 229.34375 176.34375 C 229.25365 176.40015 227.1793 176.48218 224.71875 176.5 L 220.25 176.53125 L 220.15625 162.71875 L 220.03125 148.9375 L 215.65625 148.9375 L 211.28125 148.9375 L 211.15625 162.75 L 211.0625 176.59375 L 206.53125 176.625 C 203.00478 176.6671 201.94904 176.63634 201.875 176.4375 C 201.8225 176.29664 201.77717 167.95287 201.75 157.90625 L 201.6875 139.65625 L 188.125 139.65625 L 174.5625 139.65625 L 174.46875 144.1875 L 174.375 148.71875 L 170 148.78125 C 167.33478 148.81445 165.53119 148.90488 165.40625 149.03125 C 165.27142 149.16763 165.15921 153.91028 165.09375 162.8125 L 165 176.375 L 160.625 176.4375 C 158.21913 176.4675 156.1815 176.40135 156.09375 176.3125 C 156.00605 176.2237 155.91307 169.98303 155.90625 162.4375 L 155.90625 148.71875 L 160.4375 148.625 L 165 148.53125 L 165.09375 139.25 L 165.1875 129.96875 L 174.15625 129.84375 L 183.15625 129.75 L 183.15625 125.3125 L 183.15625 120.875 L 169.46875 120.78125 L 155.8125 120.65625 L 155.75 111.59375 C 155.7161 105.6669 155.63509 102.44953 155.5 102.3125 C 155.37655 102.18728 153.58638 102.06023 151.0625 102 L 146.84375 101.90625 L 146.75 92.96875 C 146.6861 87.252662 146.56912 83.97683 146.4375 83.84375 C 146.31263 83.717491 144.50769 83.62689 141.84375 83.59375 L 137.46875 83.53125 L 137.46875 74.15625 L 137.46875 64.75 L 141.96875 64.65625 L 146.4375 64.5625 L 146.53125 60.03125 L 146.65625 55.46875 z M 123.40625 62.75 C 113.7854 79.15275 109 96.916029 109 116 C 109 145.17798 119.35373 170.13498 140.09375 190.875 C 160.83377 211.61502 185.79078 221.96875 214.96875 221.96875 C 244.14673 221.96875 269.10373 211.61502 289.84375 190.875 C 310.58377 170.13498 320.96875 145.17798 320.96875 116 C 320.96875 96.916029 316.1521 79.15275 306.53125 62.75 C 342.64885 81.2031 372.68299 109.05962 396.65625 146.28125 C 375.67965 178.6136 349.40387 204.33717 317.78125 223.5 C 286.15864 242.66283 251.87495 252.25 214.96875 252.25 C 178.06256 252.25 143.81011 242.66283 112.1875 223.5 C 80.564876 204.33717 54.257846 178.6136 33.28125 146.28125 C 57.254496 109.05962 87.288646 81.2031 123.40625 62.75 z M 238.78125 148.71875 L 243.375 148.71875 L 247.96875 148.71875 L 248.0625 157.8125 L 248.15625 166.90625 L 252.5625 167 L 256.9375 167.09375 L 256.9375 171.84375 L 256.9375 176.59375 L 247.90625 176.625 C 240.78765 176.6664 238.85695 176.63834 238.78125 176.4375 C 238.72845 176.29768 238.7216 169.98635 238.75 162.4375 L 238.78125 148.71875 z M 183.25 148.8125 L 187.875 148.875 L 192.53125 148.9375 L 192.5625 162.59375 C 192.6031 173.43275 192.57367 176.30144 192.375 176.375 C 191.8244 176.5789 174.42108 176.5791 174.34375 176.375 C 174.30075 176.26148 174.2829 174.12027 174.3125 171.625 L 174.375 167.09375 L 178.75 167 L 183.15625 166.90625 L 183.1875 157.84375 L 183.25 148.8125 z "
     id="path3897" />
</svg>
