<?xml version="1.0" encoding="UTF-8" standalone="no"?>
<!-- Created with Inkscape (http://www.inkscape.org/) -->

<svg
   xmlns:dc="http://purl.org/dc/elements/1.1/"
   xmlns:cc="http://creativecommons.org/ns#"
   xmlns:rdf="http://www.w3.org/1999/02/22-rdf-syntax-ns#"
   xmlns:svg="http://www.w3.org/2000/svg"
   xmlns="http://www.w3.org/2000/svg"
   xmlns:sodipodi="http://sodipodi.sourceforge.net/DTD/sodipodi-0.dtd"
   xmlns:inkscape="http://www.inkscape.org/namespaces/inkscape"
   id="svg2876"
   version="1.1"
   inkscape:version="0.48.4 r9939"
   width="429.94806"
   height="292.53802"
   sodipodi:docname="logo.svg">
  <metadata
     id="metadata2882">
    <rdf:RDF>
      <cc:Work
         rdf:about="">
        <dc:format>image/svg+xml</dc:format>
        <dc:type
           rdf:resource="http://purl.org/dc/dcmitype/StillImage" />
        <dc:title></dc:title>
      </cc:Work>
    </rdf:RDF>
  </metadata>
  <defs
     id="defs2880">
    <inkscape:perspective
       sodipodi:type="inkscape:persp3d"
       inkscape:vp_x="0 : 0.5 : 1"
       inkscape:vp_y="0 : 1000 : 0"
       inkscape:vp_z="1 : 0.5 : 1"
       inkscape:persp3d-origin="0.5 : 0.33333333 : 1"
       id="perspective2884" />
  </defs>
  <sodipodi:namedview
     pagecolor="#ffffff"
     bordercolor="#666666"
     borderopacity="1"
     objecttolerance="10"
     gridtolerance="10"
     guidetolerance="10"
     inkscape:pageopacity="0"
     inkscape:pageshadow="2"
     inkscape:window-width="1596"
     inkscape:window-height="877"
     id="namedview2878"
     showgrid="false"
     inkscape:snap-to-guides="true"
     inkscape:snap-grids="true"
     inkscape:snap-bbox="true"
     inkscape:zoom="0.81830417"
     inkscape:cx="199.97322"
     inkscape:cy="15.124495"
     inkscape:window-x="0"
     inkscape:window-y="19"
     inkscape:window-maximized="1"
     inkscape:current-layer="svg2876"
     fit-margin-top="10"
     fit-margin-left="3"
     fit-margin-right="3"
     fit-margin-bottom="10" />
  <path
     style="fill:#ffffff;fill-opacity:1;stroke:none"
     d="M 214.96875 10 C 209.78375 10 204.6193 10.15771 199.5 10.5 C 194.3807 10.84229 189.30371 11.377848 184.25 12.0625 C 179.19629 12.747152 174.17574 13.597912 169.1875 14.625 C 164.19926 15.652088 159.23537 16.849153 154.3125 18.21875 C 149.38963 19.588347 144.51388 21.131571 139.65625 22.84375 C 134.79862 24.555929 129.97999 26.445166 125.1875 28.5 C 120.39501 30.554834 115.63372 32.758688 110.90625 35.15625 C 106.17878 37.553812 101.47506 40.134637 96.8125 42.875 C 92.149937 45.615364 87.612855 48.475297 83.1875 51.4375 C 78.762145 54.399703 74.437975 57.472221 70.25 60.65625 C 66.062025 63.840279 62.012923 67.125409 58.0625 70.53125 C 54.112077 73.937091 50.275199 77.46611 46.5625 81.09375 C 42.849801 84.72139 39.256052 88.463074 35.78125 92.3125 C 32.306448 96.161926 28.955484 100.1163 25.71875 104.1875 C 22.482016 108.2587 19.342242 112.42579 16.34375 116.71875 C 13.345258 121.01171 10.478829 125.4228 7.71875 129.9375 C 6.930155 131.31754 6.2464944 132.69046 5.65625 134.0625 C 5.0660056 135.43454 4.580195 136.79344 4.1875 138.15625 C 3.794805 139.51906 3.4771969 140.89767 3.28125 142.25 C 3.0853031 143.60233 3 144.94064 3 146.28125 C 3 147.62186 3.0853031 148.9631 3.28125 150.3125 C 3.4771969 151.6619 3.794805 153.0161 4.1875 154.375 C 4.580195 155.7339 5.0660056 157.09964 5.65625 158.46875 C 6.2464944 159.83786 6.930155 161.21371 7.71875 162.59375 C 10.478829 167.10845 13.345258 171.51954 16.34375 175.8125 C 19.342242 180.10546 22.482016 184.27255 25.71875 188.34375 C 28.955484 192.41495 32.306448 196.36932 35.78125 200.21875 C 39.256052 204.06818 42.849801 207.80986 46.5625 211.4375 C 50.275199 215.06514 54.112077 218.59416 58.0625 222 C 62.012923 225.40584 66.062025 228.69097 70.25 231.875 C 74.437975 235.05903 78.762145 238.13155 83.1875 241.09375 C 87.612855 244.05595 92.149937 246.91589 96.8125 249.65625 C 101.47506 252.39661 106.17878 254.97744 110.90625 257.375 C 115.63372 259.77256 120.39501 261.97642 125.1875 264.03125 C 129.97999 266.08608 134.79862 267.97532 139.65625 269.6875 C 144.51388 271.39968 149.38963 272.9429 154.3125 274.3125 C 159.23537 275.6821 164.19926 276.87916 169.1875 277.90625 C 174.17574 278.93334 179.19629 279.7841 184.25 280.46875 C 189.30371 281.1534 194.3807 281.68896 199.5 282.03125 C 204.6193 282.37354 209.78375 282.53125 214.96875 282.53125 C 220.15375 282.53125 225.31734 282.37212 230.4375 282.03125 C 235.55766 281.69038 240.63232 281.18187 245.6875 280.5 C 250.74268 279.81813 255.75993 278.9605 260.75 277.9375 C 265.74007 276.9145 270.70017 275.708 275.625 274.34375 C 280.54983 272.9795 285.45304 271.45562 290.3125 269.75 C 295.17196 268.04438 299.98729 266.17213 304.78125 264.125 C 309.57521 262.07787 314.33418 259.8575 319.0625 257.46875 C 323.79082 255.08 328.49369 252.51176 333.15625 249.78125 C 337.81881 247.05074 342.35675 244.20623 346.78125 241.25 C 351.20575 238.29377 355.53224 235.21313 359.71875 232.03125 C 363.90526 228.84937 367.95766 225.56372 371.90625 222.15625 C 375.85484 218.74878 379.6955 215.22674 383.40625 211.59375 C 387.117 207.96076 390.68328 204.23344 394.15625 200.375 C 397.62922 196.51656 400.98348 192.52133 404.21875 188.4375 C 407.45402 184.35367 410.59611 180.15291 413.59375 175.84375 C 416.59139 171.53459 419.45867 167.12816 422.21875 162.59375 C 423.00734 161.21371 423.69101 159.83786 424.28125 158.46875 C 424.87149 157.09964 425.3573 155.7339 425.75 154.375 C 426.1427 153.0161 426.4603 151.6619 426.65625 150.3125 C 426.8522 148.9631 426.9375 147.62186 426.9375 146.28125 C 426.9375 144.94064 426.8522 143.60233 426.65625 142.25 C 426.4603 140.89767 426.1427 139.51906 425.75 138.15625 C 425.3573 136.79344 424.87149 135.43454 424.28125 134.0625 C 423.69101 132.69046 423.00734 131.31754 422.21875 129.9375 C 419.45867 125.4228 416.59139 121.01171 413.59375 116.71875 C 410.59611 112.42579 407.45402 108.2587 404.21875 104.1875 C 400.98348 100.1163 397.62922 96.161926 394.15625 92.3125 C 390.68328 88.463074 387.117 84.72139 383.40625 81.09375 C 379.6955 77.46611 375.85484 73.937091 371.90625 70.53125 C 367.95766 67.125409 363.90526 63.840279 359.71875 60.65625 C 355.53224 57.472221 351.20575 54.399703 346.78125 51.4375 C 342.35675 48.475297 337.81881 45.615364 333.15625 42.875 C 328.49369 40.134637 323.79082 37.553812 319.0625 35.15625 C 314.33418 32.758688 309.57521 30.554834 304.78125 28.5 C 299.98729 26.445166 295.17196 24.555929 290.3125 22.84375 C 285.45304 21.131571 280.54983 19.588347 275.625 18.21875 C 270.70017 16.849153 265.74007 15.652088 260.75 14.625 C 255.75993 13.597912 250.74268 12.747152 245.6875 12.0625 C 240.63232 11.377848 235.55766 10.84229 230.4375 10.5 C 225.31734 10.15771 220.15375 10 214.96875 10 z "
     id="path4000" />
  <path
     inkscape:connector-curvature="0"
     style="fill:#e4002b;fill-opacity:1"
     d="m 214.96875,10.000005 c -41.48003,0 -80.85577,10.952096 -118.15625,32.875 C 59.512,64.797915 29.79938,93.819904 7.71875,129.9375 4.56437,135.45765 3,140.91881 3,146.28125 c 0,5.36244 1.56437,10.79234 4.71875,16.3125 22.08063,36.1176 51.79325,65.13959 89.09375,87.0625 37.30048,21.92291 76.67622,32.875 118.15625,32.875 41.48004,0 80.88701,-10.90595 118.1875,-32.75 37.30049,-21.84405 66.98187,-50.91218 89.0625,-87.1875 3.15437,-5.52016 4.71875,-10.95006 4.71875,-16.3125 0,-5.36244 -1.56438,-10.8236 -4.71875,-16.34375 -22.08063,-36.117596 -51.76201,-65.139585 -89.0625,-87.062495 -37.30049,-21.922904 -76.70746,-32.875 -118.1875,-32.875 z m -68.3125,45.46875 4.5625,0 4.59375,0 0.0937,13.9375 0.125,13.9375 4.46875,0 4.5,0 0.0937,-13.9375 0.0937,-13.9375 4.5,0 4.46875,0 0,23.21875 0,23.218745 -4.2186,0.0937 c -2.60582,0.0622 -4.30625,0.17938 -4.4375,0.3125 -0.14124,0.14327 -0.19201,1.66307 -0.15625,4.53125 l 0.0625,4.34375 8.75,0.0625 c 5.96483,0.0358 8.82476,-0.0421 8.96875,-0.1875 0.12955,-0.1308 0.25143,-1.9113 0.3125,-4.59375 l 0.0937,-4.375 4.25,-0.0937 c 3.09059,-0.0738 4.27943,-0.18342 4.46875,-0.375 0.18933,-0.19158 0.30212,-1.40388 0.375,-4.531245 l 0.0938,-4.2813 L 197,92.750005 c 2.74169,-0.03502 4.3613,-0.107276 4.53125,-0.25 0.372,-0.312407 0.37105,-8.569516 0,-8.8125 -0.13714,-0.08981 -2.17255,-0.194494 -4.53125,-0.25 l -4.28125,-0.09375 -0.0625,-9.09375 c -0.0286,-4.988852 0.0393,-9.131989 0.125,-9.21875 0.0857,-0.08676 4.2294,-0.17769 9.21875,-0.1875 l 9.0625,0 0.0937,13.78125 0.125,13.78125 9.0625,0 9.0625,0 0,-4.34375 0,-4.34375 -4.5625,-0.09375 -4.59375,-0.09375 0,-9.375 0,-9.40625 9.28125,0 9.25,0 0.0625,18.34375 c 0.036,12.986228 0.12584,18.435495 0.28125,18.624995 0.16702,0.20364 1.22974,0.27111 4.4375,0.3125 l 4.21875,0.0625 0.0937,4.375 c 0.0611,2.68214 0.18297,4.46298 0.3125,4.59375 0.14401,0.14538 3.02812,0.2233 9.0625,0.1875 l 8.875,-0.0625 0.0625,-4.34375 c 0.0358,-2.86838 -0.015,-4.38797 -0.15625,-4.53125 -0.13173,-0.1336 -1.88562,-0.25009 -4.5625,-0.3125 l -4.3125,-0.0937 -0.125,-8.937495 c -0.0639,-5.713714 -0.14974,-8.992031 -0.28125,-9.125 -0.12439,-0.125769 -1.90573,-0.216922 -4.5,-0.25 l -4.28125,-0.0625 0,-9.375 0,-9.40625 4.375,-0.09375 4.40625,-0.09375 0.0937,-4.53125 0.0937,-4.5625 4.6875,0 4.6875,0 0.0937,13.9375 0.125,13.9375 4.375,0 4.40625,0 0.0937,-13.9375 0.0937,-13.9375 4.59375,0 4.5625,0 0,23.3125 0,23.312495 -4.46875,0.0937 -4.5,0.125 -0.0937,9.1875 -0.0937,9.15625 -13.65625,0.125 -13.6875,0.0937 0,4.4375 0,4.4375 9.09375,0.0937 9.0625,0.125 0.0937,9.28125 0.125,9.28125 4.46875,0.0937 4.5,0.0937 0,13.9375 0,13.9375 -4.59375,0 -4.59375,0 -0.0312,-13.71875 c -0.0342,-9.16296 -0.1426,-13.79687 -0.28125,-13.9375 -0.12477,-0.12656 -1.9287,-0.25183 -4.53125,-0.3125 l -4.3125,-0.0937 -0.0625,-4.21875 c -0.0345,-2.6996 -0.14078,-4.32873 -0.28125,-4.5 -0.30641,-0.37359 -26.69394,-0.40421 -27.0625,-0.0312 -0.18261,0.18479 -0.21875,4.52468 -0.21875,18.34375 0,9.96237 -0.0973,18.16238 -0.1875,18.21875 -0.0901,0.0564 -2.16445,0.13843 -4.625,0.15625 l -4.46875,0.0312 -0.0937,-13.8125 -0.125,-13.78125 -4.375,0 -4.375,0 -0.125,13.8125 -0.0937,13.84375 -4.53125,0.0312 c -3.52647,0.0421 -4.58221,0.0113 -4.65625,-0.1875 -0.0525,-0.14086 -0.0978,-8.48463 -0.125,-18.53125 l -0.0625,-18.25 -13.5625,0 -13.5625,0 -0.0937,4.53125 -0.0937,4.53125 -4.375,0.0625 c -2.66522,0.0332 -4.46881,0.12363 -4.59375,0.25 -0.13483,0.13638 -0.24704,4.87903 -0.3125,13.78125 L 165,176.375 l -4.375,0.0625 c -2.40587,0.03 -4.4435,-0.0361 -4.53125,-0.125 -0.0877,-0.0888 -0.18068,-6.32947 -0.1875,-13.875 l 0,-13.71875 4.53125,-0.0937 4.5625,-0.0937 0.0937,-9.28125 0.0937,-9.28125 8.96875,-0.125 9,-0.0937 0,-4.4375 0,-4.4375 -13.6875,-0.0937 -13.65625,-0.125 -0.0625,-9.0625 c -0.0339,-5.92685 -0.11491,-9.14422 -0.25,-9.28125 -0.12345,-0.12522 -1.91362,-0.25227 -4.4375,-0.3125 l -4.21875,-0.0937 -0.0937,-8.937495 c -0.0639,-5.716088 -0.18088,-8.99192 -0.3125,-9.125 -0.12487,-0.126259 -1.92981,-0.21686 -4.59375,-0.25 l -4.375,-0.0625 0,-9.375 0,-9.40625 4.5,-0.09375 4.46875,-0.09375 0.0937,-4.53125 0.125,-4.5625 z m -23.25,7.28125 C 113.7854,79.152755 109,96.916034 109,116 c 0,29.17798 10.35373,54.13498 31.09375,74.875 20.74002,20.74002 45.69703,31.09375 74.875,31.09375 29.17798,0 54.13498,-10.35373 74.875,-31.09375 20.74002,-20.74002 31.125,-45.69702 31.125,-74.875 0,-19.083966 -4.81665,-36.847245 -14.4375,-53.249995 36.1176,18.4531 66.15174,46.309615 90.125,83.531245 -20.9766,32.33235 -47.25238,58.05592 -78.875,77.21875 -31.62261,19.16283 -65.9063,28.75 -102.8125,28.75 -36.90619,0 -71.15864,-9.58717 -102.78125,-28.75 -31.622624,-19.16283 -57.929654,-44.8864 -78.90625,-77.21875 23.973246,-37.22163 54.007396,-65.078145 90.125,-83.531245 z m 115.375,85.968745 4.59375,0 4.59375,0 0.0937,9.09375 0.0937,9.09375 4.40625,0.0937 4.375,0.0937 0,4.75 0,4.75 -9.03125,0.0312 c -7.1186,0.0414 -9.0493,0.0133 -9.125,-0.1875 -0.0528,-0.13982 -0.0597,-6.45115 -0.0312,-14 l 0.0312,-13.71875 z m -55.53125,0.0937 4.625,0.0625 4.65625,0.0625 0.0312,13.65625 c 0.0406,10.839 0.0112,13.70769 -0.1875,13.78125 -0.5506,0.2039 -17.95392,0.2041 -18.03125,0 -0.043,-0.11352 -0.0608,-2.25473 -0.0312,-4.75 l 0.0625,-4.53125 4.375,-0.0937 4.40625,-0.0937 0.0312,-9.0625 0.0625,-9.03125 z"
     id="path3897" />
</svg>
